<?xml version="1.0" encoding="utf-8"?>
<!-- Generator: Adobe Illustrator 16.0.0, SVG Export Plug-In . SVG Version: 6.00 Build 0)  -->
<!DOCTYPE svg PUBLIC "-//W3C//DTD SVG 1.1//EN" "http://www.w3.org/Graphics/SVG/1.1/DTD/svg11.dtd">
<svg version="1.1" id="Layer_1" xmlns="http://www.w3.org/2000/svg" xmlns:xlink="http://www.w3.org/1999/xlink" x="0px" y="0px"
	 width="522.637px" height="360.468px" viewBox="0 0 522.637 360.468" enable-background="new 0 0 522.637 360.468"
	 xml:space="preserve">
<g>
	<g>
		<g>
			<path fill="#FFFFFF" d="M28.151,264.207c2.208,0,4.07,1.795,4.07,4.004c0,2.275-1.862,4.07-4.07,4.07H8.072v12.074h16.077
				c2.208,0,4.002,1.793,4.002,4.002c0,2.207-1.794,4.002-4.002,4.002H8.072v16.145c0,2.209-1.862,4.002-4.07,4.002
				S0,310.712,0,308.503V268.21c0-2.209,1.794-4.004,4.002-4.004H28.151z"/>
			<path fill="#FFFFFF" d="M44.709,266.761c0.621-1.52,2.139-2.555,3.727-2.555c1.656,0,3.173,1.035,3.795,2.555l16.076,40.225
				c0.207,0.482,0.275,0.965,0.275,1.518c0,2.002-1.655,4.002-4.002,4.002c-1.586,0-3.104-0.965-3.726-2.553l-3.036-7.521H39.12
				l-3.035,7.521c-0.622,1.588-2.14,2.553-3.726,2.553c-2.416,0-4.002-1.932-4.002-4.002c0-0.482,0.068-1.035,0.275-1.518
				L44.709,266.761z M40.846,260.275c-0.276-0.553-0.414-1.174-0.414-1.793c0-1.449,0.76-2.828,2.208-3.588l8.071-4.072
				c0.553-0.275,1.105-0.414,1.726-0.414c1.519,0,2.968,0.828,3.657,2.209c0.276,0.551,0.414,1.174,0.414,1.793
				c0,1.518-0.828,2.967-2.209,3.658l-8.071,4c-0.552,0.277-1.173,0.414-1.794,0.414C42.985,262.482,41.535,261.654,40.846,260.275z
				 M42.363,294.429h12.213l-6.141-15.387L42.363,294.429z"/>
			<path fill="#FFFFFF" d="M106.32,297.394c0,9.316-7.658,15.111-14.144,15.111H78.102c-2.209,0-4.002-1.793-4.002-4.002V268.21
				c0-2.209,1.793-4.004,4.002-4.004h11.107c0.346,0,3.313,0.139,6.279,1.588c4.416,2.209,6.762,6.209,6.762,11.523
				c0,2.898-0.759,5.52-2.139,7.588C104.113,287.529,106.32,291.945,106.32,297.394z M82.172,282.353h6.004
				c1.033,0,6.07-0.207,6.07-5.035c0-4.625-3.174-5.037-4.484-5.037c-0.346,0-0.553,0-0.553,0h-7.037V282.353z M98.248,297.394
				c0-2.553-1.586-7.037-6.555-7.037h-9.521v14.076h9.521c0.069,0,1.932-0.07,3.588-0.967
				C97.973,301.949,98.248,299.257,98.248,297.394z"/>
			<path fill="#FFFFFF" d="M142.403,306.365c0.415,0.689,0.622,1.381,0.622,2.139c0,1.311-0.69,2.623-1.932,3.381
				c-0.621,0.414-1.38,0.621-2.07,0.621c-1.38,0-2.691-0.689-3.45-1.863l-8.9-14.213h-6.762v12.074c0,2.209-1.864,4.002-4.07,4.002
				c-2.208,0-4.003-1.793-4.003-4.002V268.21c0-2.209,1.795-4.004,4.003-4.004h10.97c0.414,0,4.071,0.07,7.865,1.934
				c5.383,2.689,8.35,7.658,8.35,14.145c0,0.414-0.069,4.139-1.932,7.865c-1.449,2.828-3.52,4.967-6.072,6.348L142.403,306.365z
				 M119.911,288.357h6.899c3.449,0,5.658-1.174,6.969-3.656c1.104-2.07,1.173-4.279,1.173-4.416c0-3.451-1.241-5.658-3.864-6.969
				c-2.069-1.035-4.277-1.035-4.277-1.035h-6.899V288.357z"/>
			<path fill="#FFFFFF" d="M148.543,308.503V268.21c0-2.209,1.793-4.004,4.001-4.004c2.209,0,4.002,1.795,4.002,4.004v40.293
				c0,2.209-1.793,4.002-4.002,4.002C150.336,312.505,148.543,310.712,148.543,308.503z"/>
			<path fill="#FFFFFF" d="M199.393,304.156c1.035,1.932,0.275,4.348-1.656,5.453c-3.519,1.861-7.451,2.896-11.522,2.896
				c-13.315,0-24.149-10.832-24.149-24.148s10.834-24.15,24.149-24.15c4.071,0,8.004,1.035,11.522,2.898
				c1.932,1.105,2.691,3.52,1.656,5.451c-1.104,2.002-3.52,2.691-5.521,1.656c-2.276-1.311-4.967-1.932-7.658-1.932
				c-8.831,0-16.076,7.174-16.076,16.076c0,8.9,7.245,16.076,16.076,16.076c2.691,0,5.382-0.621,7.658-1.932
				C195.873,301.466,198.289,302.156,199.393,304.156z"/>
			<path fill="#FFFFFF" d="M245.342,306.986c0.207,0.482,0.277,1.035,0.277,1.518c0,2.07-1.59,4.002-4.004,4.002
				c-1.586,0-3.105-0.965-3.725-2.553l-3.037-7.521h-18.697l-3.035,7.521c-0.621,1.588-2.141,2.553-3.727,2.553
				c-2.346,0-4.002-2-4.002-4.002c0-0.553,0.068-1.035,0.277-1.518l16.075-40.225c0.62-1.52,2.139-2.555,3.795-2.555
				c1.587,0,3.104,1.035,3.726,2.555L245.342,306.986z M231.609,294.429l-6.069-15.387l-6.141,15.387H231.609z"/>
		</g>
		<g>
			<path fill="#FFFFFF" d="M261.107,312.505c-0.736,0-1.379-0.275-1.93-0.828c-0.553-0.551-0.828-1.195-0.828-1.932V266.97
				c0-0.736,0.275-1.381,0.828-1.932c0.551-0.551,1.193-0.828,1.93-0.828h12.42c0.045,0,0.586,0.033,1.62,0.104
				c1.034,0.068,2.313,0.322,3.83,0.76s3.15,1.137,4.898,2.104c1.747,0.965,3.356,2.346,4.83,4.139
				c1.472,1.795,2.702,4.07,3.691,6.83c0.988,2.76,1.482,6.166,1.482,10.211c0,4.049-0.494,7.453-1.482,10.213
				c-0.989,2.76-2.22,5.035-3.691,6.83c-1.474,1.793-3.083,3.172-4.83,4.139c-1.748,0.967-3.381,1.668-4.898,2.104
				c-1.518,0.438-2.796,0.691-3.83,0.76c-1.034,0.07-1.575,0.104-1.62,0.104H261.107z M264.076,306.847h9.451
				c0.091,0,0.367-0.023,0.826-0.068c0.461-0.045,1.037-0.15,1.726-0.309c0.689-0.162,1.473-0.416,2.348-0.762
				c0.873-0.344,1.768-0.793,2.688-1.346c2.255-1.516,4.002-3.631,5.245-6.346c1.242-2.713,1.862-5.934,1.862-9.66
				c0-3.863-0.646-7.152-1.933-9.865c-1.288-2.713-3.128-4.828-5.52-6.348c-0.827-0.553-1.679-0.977-2.552-1.275
				c-0.874-0.299-1.655-0.518-2.346-0.656c-0.689-0.137-1.474-0.252-2.346-0.344h-9.451V306.847z"/>
			<path fill="#FFFFFF" d="M328.515,307.675c0.553,0.553,0.828,1.242,0.828,2.07c0,0.736-0.275,1.381-0.828,1.932
				c-0.553,0.553-1.22,0.828-2.001,0.828h-23.458c-0.783,0-1.448-0.275-2.001-0.828c-0.552-0.551-0.828-1.195-0.828-1.932V266.97
				c0-0.736,0.276-1.381,0.828-1.932c0.553-0.551,1.218-0.828,2.001-0.828h23.458c0.781,0,1.448,0.277,2.001,0.828
				s0.828,1.195,0.828,1.932c0,0.828-0.275,1.518-0.828,2.07c-0.553,0.551-1.22,0.828-2.001,0.828h-20.63v15.729h16.352
				c0.781,0,1.437,0.266,1.966,0.795s0.793,1.184,0.793,1.965c0,0.783-0.264,1.439-0.793,1.969
				c-0.529,0.527-1.185,0.791-1.966,0.791h-16.352v15.73h20.63C327.295,306.847,327.962,307.123,328.515,307.675z"/>
		</g>
		<g>
			<path fill="#FFFFFF" d="M344.082,308.503V268.21c0-2.209,1.793-4.004,4.002-4.004c2.207,0,4.003,1.795,4.003,4.004v40.293
				c0,2.209-1.796,4.002-4.003,4.002C345.875,312.505,344.082,310.712,344.082,308.503z"/>
			<path fill="#FFFFFF" d="M361.605,312.505c-2.208,0-3.999-1.793-3.999-4.002V268.21c0-2.209,1.791-4.004,3.999-4.004h11.73
				c0.275,0,20.491-0.068,20.491,24.15c0,24.217-20.216,24.148-20.491,24.148H361.605z M365.677,304.433h7.659
				c0.206,0,3.313-0.07,6.416-2.07c4.002-2.553,6.003-7.314,6.003-14.006c0-6.83-2.069-11.592-6.278-14.145
				c-3.036-1.863-6.071-1.932-6.141-1.932h-7.659V304.433z"/>
			<path fill="#FFFFFF" d="M429.566,308.503c0,2.209-1.794,4.002-4.072,4.002h-22.078c-2.276,0-4.072-1.793-4.072-4.002V268.21
				c0-2.209,1.796-4.004,4.072-4.004h22.078c2.278,0,4.072,1.795,4.072,4.004c0,2.275-1.794,4.07-4.072,4.07h-18.076v12.074h14.076
				c2.206,0,4,1.793,4,4.002c0,2.207-1.794,4.002-4,4.002h-14.076v12.074h18.076C427.772,304.433,429.566,306.226,429.566,308.503z"
				/>
			<path fill="#FFFFFF" d="M435.084,308.503V268.21c0-2.209,1.794-4.004,4.001-4.004c2.209,0,4.002,1.795,4.002,4.004v40.293
				c0,2.209-1.793,4.002-4.002,4.002C436.878,312.505,435.084,310.712,435.084,308.503z"/>
			<path fill="#FFFFFF" d="M488.555,306.986c0.207,0.482,0.276,1.035,0.276,1.518c0,2.07-1.587,4.002-4.001,4.002
				c-1.587,0-3.106-0.965-3.726-2.553l-3.037-7.521h-18.699l-3.033,7.521c-0.623,1.588-2.141,2.553-3.728,2.553
				c-2.346,0-4.001-2-4.001-4.002c0-0.553,0.068-1.035,0.275-1.518l16.076-40.225c0.623-1.52,2.139-2.555,3.796-2.555
				c1.586,0,3.104,1.035,3.724,2.555L488.555,306.986z M474.824,294.429l-6.07-15.387l-6.142,15.387H474.824z"/>
			<path fill="#FFFFFF" d="M522.637,296.429v0.689c0,4.002-1.587,7.797-4.347,10.557c-3.036,3.037-7.176,4.693-11.729,4.693h-0.551
				c-5.865-0.209-10.972-3.52-13.388-8.695c-0.275-0.551-0.343-1.172-0.343-1.725c0-1.518,0.826-2.967,2.346-3.656
				c0.552-0.275,1.104-0.346,1.656-0.346c1.518,0,3.033,0.828,3.727,2.346c1.103,2.416,3.446,3.934,6.277,4.002h0.345
				c2.414,0,4.415-0.76,5.864-2.207c1.381-1.381,2.14-3.105,2.14-4.969v-0.275c-0.208-3.174-6.21-6.002-8.832-6.762l-0.276-0.139
				c-7.106-2.553-10.695-7.037-10.695-13.248v-0.551c0.139-3.52,1.727-6.691,4.692-8.9c2.485-1.932,5.865-3.105,9.453-3.105h0.62
				c2.898,0.068,5.865,1.242,8.279,3.037c1.035,0.828,1.588,2,1.588,3.174c0,0.826-0.275,1.725-0.828,2.414
				c-0.827,1.035-2.001,1.586-3.242,1.586c-0.829,0-1.656-0.207-2.415-0.758c-1.035-0.828-2.416-1.311-3.656-1.379h-0.415
				c-3.381,0-6.003,1.723-6.072,4.207v0.275c0,3.383,2.621,4.623,5.313,5.729C510.219,283.044,522.224,286.908,522.637,296.429z"/>
		</g>
	</g>
	<g>
		<path fill="#FFFFFF" d="M158.289,355.73c0.332-0.139,0.609-0.207,0.832-0.207c0.304,0,0.596,0.076,0.872,0.229
			s0.485,0.381,0.623,0.686c0.222,0.389,0.256,0.818,0.104,1.289c-0.152,0.471-0.409,0.816-0.769,1.039l0.041-0.043
			c-1.054,0.527-2.183,0.949-3.387,1.268c-1.206,0.318-2.403,0.479-3.596,0.479c-1.995,0-3.88-0.381-5.652-1.143
			c-1.773-0.762-3.318-1.801-4.634-3.117c-1.316-1.316-2.355-2.861-3.117-4.635c-0.763-1.773-1.143-3.656-1.143-5.652
			c0-1.994,0.38-3.871,1.143-5.631c0.762-1.76,1.801-3.303,3.117-4.635c1.315-1.33,2.86-2.375,4.634-3.137
			c1.772-0.762,3.657-1.143,5.652-1.143c1.192,0,2.39,0.174,3.596,0.52c1.204,0.346,2.333,0.754,3.387,1.225l-0.041-0.041
			c0.387,0.25,0.657,0.602,0.81,1.061c0.152,0.457,0.104,0.893-0.146,1.309c-0.305,0.582-0.804,0.873-1.495,0.873
			c-0.277,0-0.555-0.068-0.832-0.209h0.042c-0.747-0.414-1.587-0.74-2.515-0.977c-0.929-0.234-1.864-0.354-2.806-0.354
			c-1.524,0-2.958,0.291-4.302,0.873s-2.521,1.371-3.532,2.369s-1.815,2.176-2.411,3.533s-0.893,2.813-0.893,4.363
			c0,1.553,0.297,3.008,0.893,4.363c0.596,1.357,1.399,2.537,2.411,3.533c1.012,0.998,2.188,1.787,3.532,2.369
			s2.777,0.873,4.302,0.873c0.97,0,1.905-0.104,2.806-0.313c0.9-0.207,1.738-0.545,2.515-1.018H158.289z"/>
		<path fill="#FFFFFF" d="M179.153,360.468c-1.913,0-3.714-0.381-5.403-1.143s-3.166-1.801-4.426-3.117
			c-1.262-1.316-2.26-2.861-2.993-4.635s-1.101-3.656-1.101-5.652c0-1.994,0.367-3.871,1.101-5.631s1.731-3.303,2.993-4.635
			c1.26-1.33,2.736-2.375,4.426-3.137s3.49-1.143,5.403-1.143c1.911,0,3.712,0.381,5.403,1.143c1.689,0.762,3.158,1.807,4.404,3.137
			c1.247,1.332,2.238,2.875,2.972,4.635s1.103,3.637,1.103,5.631c0,1.996-0.369,3.879-1.103,5.652s-1.725,3.318-2.972,4.635
			c-1.246,1.316-2.715,2.355-4.404,3.117C182.865,360.087,181.064,360.468,179.153,360.468z M179.153,334.783
			c-1.47,0-2.841,0.291-4.115,0.873s-2.383,1.371-3.325,2.369c-0.941,0.998-1.689,2.176-2.244,3.533s-0.831,2.813-0.831,4.363
			c0,1.553,0.276,3.008,0.831,4.363c0.555,1.357,1.303,2.537,2.244,3.533c0.942,0.998,2.051,1.787,3.325,2.369
			s2.646,0.873,4.115,0.873c1.44,0,2.798-0.291,4.072-0.873s2.391-1.371,3.347-2.369c0.955-0.996,1.703-2.176,2.243-3.533
			c0.541-1.355,0.812-2.811,0.812-4.363c0-1.551-0.271-3.006-0.812-4.363c-0.54-1.357-1.288-2.535-2.243-3.533
			c-0.956-0.998-2.072-1.787-3.347-2.369S180.594,334.783,179.153,334.783z"/>
		<path fill="#FFFFFF" d="M231.438,331.5c0.332,0.141,0.595,0.361,0.789,0.666c0.193,0.305,0.291,0.609,0.291,0.914
			c0,0.111-0.007,0.236-0.021,0.375c-0.014,0.139-0.048,0.234-0.104,0.289l-10.722,25.686c-0.139,0.332-0.354,0.59-0.645,0.768
			c-0.291,0.182-0.589,0.271-0.893,0.271c-0.306,0-0.618-0.105-0.936-0.313c-0.318-0.207-0.548-0.463-0.686-0.768l-4.156-10.059
			l-4.24,10.1c-0.249,0.693-0.762,1.039-1.537,1.039c-0.332,0-0.645-0.09-0.936-0.271c-0.29-0.178-0.506-0.436-0.644-0.768
			l-10.724-25.686c-0.027-0.055-0.048-0.158-0.062-0.311c-0.015-0.152-0.021-0.27-0.021-0.354c0-0.416,0.152-0.803,0.457-1.164
			c0.305-0.359,0.719-0.539,1.246-0.539c0.333,0,0.638,0.096,0.914,0.289c0.277,0.195,0.484,0.457,0.624,0.791l9.144,21.902
			l3.907-9.475c-0.722-1.775-1.497-3.631-2.327-5.57c-0.832-1.939-1.607-3.795-2.328-5.57c-0.111-0.166-0.167-0.4-0.167-0.705
			c0-0.416,0.167-0.797,0.499-1.143s0.762-0.52,1.289-0.52c0.748,0,1.262,0.359,1.537,1.08l3.367,8.063l3.324-8.063
			c0.139-0.334,0.354-0.596,0.645-0.791c0.291-0.193,0.589-0.289,0.895-0.289c0.525,0,0.955,0.18,1.287,0.539
			c0.332,0.361,0.499,0.748,0.499,1.164c0,0.277-0.028,0.498-0.083,0.664l-4.779,11.141l3.99,9.475l9.102-21.902
			c0.138-0.334,0.346-0.596,0.623-0.791c0.276-0.193,0.582-0.289,0.914-0.289c0.139,0,0.264,0.012,0.374,0.041
			C231.256,331.445,231.354,331.472,231.438,331.5z"/>
		<path fill="#FFFFFF" d="M249.309,360.468c-1.912,0-3.714-0.381-5.404-1.143c-1.689-0.762-3.164-1.801-4.426-3.117
			c-1.261-1.316-2.258-2.861-2.992-4.635s-1.101-3.656-1.101-5.652c0-1.994,0.366-3.871,1.101-5.631s1.731-3.303,2.992-4.635
			c1.262-1.33,2.736-2.375,4.426-3.137c1.69-0.762,3.492-1.143,5.404-1.143s3.713,0.381,5.401,1.143
			c1.69,0.762,3.161,1.807,4.406,3.137c1.247,1.332,2.237,2.875,2.972,4.635s1.102,3.637,1.102,5.631
			c0,1.996-0.367,3.879-1.102,5.652s-1.725,3.318-2.972,4.635c-1.245,1.316-2.716,2.355-4.406,3.117
			C253.021,360.087,251.221,360.468,249.309,360.468z M249.309,334.783c-1.469,0-2.841,0.291-4.115,0.873
			c-1.275,0.582-2.383,1.371-3.324,2.369c-0.942,0.998-1.691,2.176-2.245,3.533s-0.831,2.813-0.831,4.363
			c0,1.553,0.277,3.008,0.831,4.363c0.554,1.357,1.303,2.537,2.245,3.533c0.941,0.998,2.049,1.787,3.324,2.369
			c1.274,0.582,2.646,0.873,4.115,0.873c1.439,0,2.797-0.291,4.072-0.873c1.274-0.582,2.389-1.371,3.346-2.369
			c0.955-0.996,1.705-2.176,2.245-3.533c0.54-1.355,0.81-2.811,0.81-4.363c0-1.551-0.27-3.006-0.81-4.363s-1.29-2.535-2.245-3.533
			c-0.957-0.998-2.071-1.787-3.346-2.369C252.105,335.074,250.748,334.783,249.309,334.783z"/>
		<path fill="#FFFFFF" d="M287.502,357.849l-0.041-0.041c0.055,0.166,0.11,0.332,0.166,0.498c0.055,0.166,0.083,0.332,0.083,0.5
			c0,0.248-0.076,0.514-0.229,0.789c-0.152,0.277-0.353,0.5-0.603,0.666c-0.222,0.139-0.498,0.207-0.832,0.207
			c-0.692,0-1.19-0.262-1.495-0.789l-5.943-9.477h-5.652v8.604c0,0.443-0.166,0.83-0.498,1.164
			c-0.333,0.332-0.734,0.498-1.206,0.498c-0.473,0-0.865-0.166-1.185-0.498c-0.319-0.334-0.479-0.721-0.479-1.164v-25.768
			c0-0.443,0.159-0.832,0.479-1.164s0.712-0.498,1.185-0.498h7.023c0.14,0,0.665,0.063,1.58,0.186
			c0.913,0.125,1.938,0.449,3.075,0.977h-0.042c1.497,0.805,2.675,1.92,3.533,3.346c0.857,1.43,1.288,3.055,1.288,4.885
			c0,0.082-0.007,0.264-0.021,0.539c-0.015,0.277-0.063,0.633-0.146,1.061c-0.083,0.43-0.202,0.914-0.354,1.453
			c-0.153,0.541-0.367,1.088-0.644,1.643c-0.389,0.805-0.949,1.537-1.685,2.203c-0.733,0.666-1.599,1.273-2.597,1.828
			L287.502,357.849z M272.956,346.794h5.319c1.247,0,2.299-0.234,3.158-0.705c0.858-0.471,1.538-1.15,2.036-2.037
			c0.194-0.359,0.349-0.729,0.459-1.102c0.109-0.375,0.192-0.721,0.249-1.039c0.055-0.318,0.09-0.582,0.104-0.791
			c0.014-0.207,0.021-0.324,0.021-0.352c0-2.467-0.984-4.211-2.951-5.238c-0.388-0.193-0.764-0.338-1.122-0.436
			c-0.361-0.096-0.692-0.172-0.997-0.229c-0.334-0.055-0.651-0.084-0.957-0.084h-5.319V346.794z"/>
		<path fill="#FFFFFF" d="M312.854,357.642c0.11,0.139,0.213,0.318,0.312,0.541c0.097,0.221,0.146,0.428,0.146,0.623
			c0,0.443-0.173,0.83-0.52,1.164c-0.346,0.332-0.756,0.498-1.227,0.498c-0.194,0-0.408-0.055-0.644-0.166
			c-0.236-0.111-0.451-0.234-0.645-0.375l-12.385-13.674v12.553c0,0.443-0.168,0.83-0.5,1.164c-0.332,0.332-0.734,0.498-1.203,0.498
			c-0.473,0-0.874-0.166-1.206-0.498c-0.333-0.334-0.5-0.721-0.5-1.164v-25.768c0-0.443,0.167-0.832,0.5-1.164
			c0.332-0.332,0.733-0.498,1.206-0.498c0.469,0,0.871,0.166,1.203,0.498s0.5,0.721,0.5,1.164v12.551
			c0.941-1.025,1.939-2.119,2.992-3.283c1.054-1.164,2.119-2.342,3.2-3.533c1.08-1.191,2.14-2.369,3.18-3.533
			c1.039-1.162,2.044-2.271,3.013-3.324c0.193-0.139,0.408-0.262,0.645-0.373c0.235-0.111,0.449-0.166,0.644-0.166
			c0.471,0,0.881,0.166,1.227,0.498c0.347,0.332,0.52,0.721,0.52,1.164c0,0.221-0.049,0.436-0.146,0.643
			c-0.099,0.209-0.201,0.383-0.312,0.521l-10.682,11.719L312.854,357.642z"/>
		<path fill="#FFFFFF" d="M321.873,360.468c-0.443,0-0.831-0.166-1.164-0.498c-0.332-0.334-0.499-0.721-0.499-1.164v-25.768
			c0-0.443,0.167-0.832,0.499-1.164c0.333-0.332,0.721-0.498,1.164-0.498c0.471,0,0.88,0.166,1.225,0.498
			c0.348,0.332,0.52,0.721,0.52,1.164v25.768c0,0.443-0.172,0.83-0.52,1.164C322.753,360.302,322.344,360.468,321.873,360.468z"/>
		<path fill="#FFFFFF" d="M350.633,360.468c-0.305,0-0.576-0.076-0.81-0.229c-0.236-0.152-0.438-0.338-0.604-0.561l-14.838-21.238
			v20.365c0,0.443-0.173,0.83-0.519,1.164c-0.347,0.332-0.77,0.498-1.268,0.498c-0.443,0-0.832-0.166-1.163-0.498
			c-0.334-0.334-0.5-0.721-0.5-1.164v-25.768c0-0.416,0.166-0.797,0.5-1.143c0.331-0.346,0.733-0.52,1.205-0.52
			c0.304,0,0.573,0.076,0.81,0.227c0.235,0.154,0.436,0.342,0.603,0.563l14.88,21.238v-20.365c0-0.443,0.166-0.832,0.498-1.164
			c0.333-0.332,0.733-0.498,1.205-0.498c0.471,0,0.873,0.166,1.205,0.498c0.333,0.332,0.498,0.721,0.498,1.164v25.768
			c0,0.443-0.165,0.83-0.498,1.164C351.506,360.302,351.104,360.468,350.633,360.468z"/>
		<path fill="#FFFFFF" d="M373.366,360.468c-1.886,0-3.721-0.354-5.507-1.061c-1.788-0.707-3.388-1.766-4.8-3.18
			c-1.357-1.383-2.404-2.957-3.139-4.715c-0.735-1.76-1.101-3.625-1.101-5.592c0-1.939,0.365-3.787,1.101-5.549
			c0.734-1.758,1.781-3.33,3.139-4.717c1.412-1.412,3.006-2.479,4.778-3.199c1.774-0.721,3.616-1.08,5.528-1.08
			c1.939,0,3.797,0.359,5.568,1.08c1.772,0.721,3.368,1.787,4.78,3.199c0.305,0.279,0.458,0.666,0.458,1.164
			c0,0.5-0.168,0.914-0.499,1.246c-0.335,0.307-0.735,0.459-1.206,0.459c-0.498,0-0.901-0.152-1.206-0.459
			c-1.052-1.051-2.25-1.863-3.595-2.43c-1.344-0.568-2.776-0.854-4.301-0.854c-1.525,0-2.943,0.285-4.26,0.854
			c-1.317,0.566-2.515,1.379-3.596,2.43c-1.054,1.055-1.864,2.252-2.431,3.596c-0.569,1.344-0.853,2.764-0.853,4.26
			c0,1.498,0.283,2.918,0.853,4.26c0.566,1.346,1.377,2.543,2.431,3.596c1.108,1.109,2.349,1.939,3.72,2.494
			c1.372,0.555,2.75,0.832,4.136,0.832c2.688,0,5.167-0.93,7.439-2.787v-6.732h-7.313c-0.473,0-0.881-0.158-1.228-0.479
			c-0.347-0.318-0.519-0.711-0.519-1.184c0-0.471,0.172-0.865,0.519-1.186c0.347-0.316,0.755-0.477,1.228-0.477h8.976
			c0.471,0,0.871,0.16,1.206,0.477c0.331,0.32,0.499,0.715,0.499,1.186v9.061c0,0.223-0.042,0.451-0.125,0.686
			c-0.083,0.236-0.207,0.424-0.374,0.561c-1.413,1.414-3.008,2.473-4.779,3.18C377.12,360.115,375.277,360.468,373.366,360.468z"/>
	</g>
	<g>
		<path fill-rule="evenodd" clip-rule="evenodd" fill="#FFFFFF" d="M171.014,233.476c-3.068,0-11.23-0.127-12.243-0.111
			c-3.112,0.049-5.772-1.174-8.208-2.947c-3.408-2.482-5.381-5.914-6.112-10.01c-0.266-1.488-0.088-3.057-0.089-4.59
			c-0.006-6.543,0.004-13.086-0.004-19.628c-0.016-12.726-0.061-25.453-0.056-38.179c0.005-13.083,0.048-26.168,0.084-39.252
			c0.036-12.879,0.083-25.758,0.127-38.636c0.007-1.891,0.05-3.782,0.019-5.672c-0.072-4.195,1.695-7.574,4.689-10.335
			c3.201-2.952,7.117-4.062,11.406-4.074c8.202-0.024,16.402-0.08,24.604-0.097c2.759-0.006,5.518,0.048,8.275,0.104
			c6.087,0.126,12.162,4.336,14.179,9.791c0.834,2.252,0.906,4.591,0.834,6.95c-0.037,1.173-0.104,22.994-0.096,32.732
			c0,0.25,0,0.5,0,0.953c0.365-0.263,0.604-0.418,0.825-0.595c7.557-6.054,15.108-12.116,22.669-18.166
			c1.755-1.403,3.465-2.881,5.328-4.128c7.295-4.883,17.732-3.748,23.635,2.498c2.024,2.142,2.986,4.7,3.015,7.643
			c0.037,4.036,0.112,8.071,0.173,12.107c0.002,0.148,0.02,0.297,0.041,0.596c0.313-0.232,0.55-0.397,0.774-0.577
			c8.892-7.126,17.761-14.278,26.678-21.373c7.054-5.612,17.445-5.225,24.104,0.826c2.684,2.438,3.997,5.518,4.031,9.111
			c0.037,3.806-0.03,7.613-0.052,11.42c-0.002,0.3,0,0.601,0,1.115c0.424-0.314,0.7-0.505,0.961-0.715
			c8.827-7.085,17.657-14.167,26.476-21.263c3.013-2.424,6.356-4.135,10.245-4.435c5.716-0.441,10.856,1.051,14.97,5.202
			c2.456,2.479,3.411,5.642,3.428,9.085c0.019,4.345-0.014,8.689-0.015,13.034c-0.002,22.644-0.003,45.287,0,67.931
			c0.003,12.548-0.068,25.095,0.055,37.642c0.063,6.547-3.06,10.918-8.61,13.85c-2.327,1.229-4.838,1.895-7.475,2.051
			c-0.272,0.018-0.54,0.096-0.81,0.143c-60.318,0-120.637,0-180.955,0 M319.642,220.351c0.306-0.234,0.492-0.363,0.663-0.508
			c15.515-13.145,31.025-26.291,46.55-39.422c0.461-0.39,0.621-0.78,0.62-1.365c-0.015-10.885-0.014-21.771-0.011-32.656
			c0.005-15.74,0.006-31.48,0.029-47.22c0.004-2.416-0.961-4.159-3.173-5.211c-4.207-2-8.145-1.689-11.815,1.271
			c-4.533,3.656-9.073,7.305-13.617,10.948c-6.238,5.002-12.486,9.992-18.714,15.007c-0.273,0.219-0.549,0.639-0.549,0.966
			c-0.024,32.452-0.022,64.903-0.021,97.354C319.604,219.74,319.624,219.962,319.642,220.351z M311.328,128.741
			c-14.44,12.201-45.084,39.01-46.403,40.057c-0.46,0.365-0.653,0.752-0.653,1.354c0.016,18.016,0.018,36.032-0.004,54.047
			c-0.002,0.783,0.217,0.982,0.987,0.98c15.052-0.021,30.104-0.016,45.155-0.018c0.298,0,0.596-0.025,0.918-0.039
			C311.328,193.021,311.328,161.005,311.328,128.741z M256.023,127.746c-0.412,0.331-0.666,0.53-0.913,0.735
			c-13.813,11.476-27.677,22.893-41.427,34.443c-19.931,16.743-39.775,33.589-59.68,50.362c-1.016,0.857-1.663,1.689-1.383,3.088
			c0.128,0.639-0.05,1.334,0.041,1.986c0.125,0.896,0.203,1.861,0.599,2.646c1.299,2.57,3.302,4.154,6.354,4.1
			c1.634-0.031,3.269,0.055,4.902,0.051c4.854-0.01,9.707-0.039,14.562-0.061c1.66-0.008,3.322,0.004,4.98-0.043
			c0.346-0.01,0.754-0.156,1.018-0.379c4.27-3.613,8.51-7.264,12.781-10.875c13.361-11.299,26.729-22.59,40.103-33.874
			c5.779-4.876,11.58-9.726,17.364-14.596c0.223-0.187,0.512-0.433,0.545-0.683c0.108-0.795,0.148-1.605,0.148-2.41
			c0.01-11.167,0.006-22.333,0.006-33.5C256.023,128.472,256.023,128.206,256.023,127.746z M152.582,157.163
			c0.3-0.227,0.482-0.353,0.651-0.495c4.396-3.702,8.78-7.416,13.188-11.105c11.046-9.248,22.098-18.489,33.163-27.714
			c0.461-0.385,0.634-0.764,0.631-1.352c-0.031-7.972-0.061-15.943-0.051-23.915c0.006-5.9,0.069-11.801,0.104-17.702
			c0.008-1.367-0.28-2.662-1.218-3.695c-1.592-1.753-3.561-2.847-5.965-2.883c-5.695-0.083-27.355-0.091-32.487,0.014
			c-1.205,0.025-2.454,0.226-3.595,0.608c-2.725,0.916-4.201,3.136-4.208,5.99c-0.005,1.737-0.032,3.474-0.038,5.211
			c-0.039,12.953-0.079,25.905-0.112,38.858c-0.02,7.742-0.028,15.483-0.042,23.225c-0.008,4.19-0.015,8.381-0.021,12.571
			C152.581,155.516,152.582,156.254,152.582,157.163z M152.604,203.277c0.373-0.299,0.57-0.449,0.76-0.609
			c15.433-13.007,30.863-26.016,46.301-39.017c0.359-0.303,0.527-0.606,0.526-1.098c-0.022-11.04-0.025-22.08-0.036-33.12
			c0-0.211-0.034-0.422-0.063-0.753c-0.323,0.257-0.544,0.424-0.755,0.601c-3.624,3.034-7.244,6.072-10.869,9.104
			c-11.756,9.838-23.512,19.676-35.278,29.501c-0.438,0.366-0.598,0.735-0.597,1.298c0.016,11.04,0.012,22.08,0.012,33.121
			C152.604,202.554,152.604,202.802,152.604,203.277z M264.529,157.197c0.071,0.031,0.144,0.062,0.215,0.092
			c0.93-0.79,1.857-1.582,2.789-2.368c14.467-12.206,28.937-24.409,43.391-36.63c0.247-0.209,0.438-0.633,0.44-0.959
			c0.048-6.208,0.061-12.416,0.087-18.624c0.006-1.477-0.556-2.651-1.701-3.597c-3.684-3.046-9.369-3.106-13.124-0.1
			c-10.607,8.494-21.216,16.988-31.806,25.504c-0.283,0.228-0.508,0.708-0.512,1.073c-0.025,2.272,0.023,4.545,0.041,6.819
			c0.061,8.634,0.12,17.268,0.178,25.902C264.534,155.271,264.529,156.233,264.529,157.197z M208.424,156.29
			c0.318-0.225,0.487-0.329,0.639-0.454c3.564-2.943,7.133-5.883,10.691-8.835c11.795-9.787,23.58-19.584,35.392-29.349
			c0.65-0.538,0.863-1.073,0.844-1.878c-0.142-5.845-0.279-11.691-0.335-17.538c-0.013-1.394-0.524-2.379-1.571-3.215
			c-3.724-2.973-9.396-2.938-13.216,0.119c-10.529,8.428-21.049,16.868-31.592,25.279c-0.609,0.487-0.823,0.996-0.822,1.747
			c0.003,11.012-0.016,22.024-0.029,33.035C208.423,155.502,208.424,155.804,208.424,156.29z M197.496,224.851
			c0.053,0.086,0.105,0.172,0.158,0.258c19.426,0,38.854,0,58.305,0c0-16.277,0-32.502,0-48.952
			C236.371,192.472,216.934,208.662,197.496,224.851z M327.051,224.957c0.032,0.057,0.064,0.115,0.097,0.172
			c0.146,0.012,0.295,0.033,0.442,0.033c10.193,0,20.387,0.012,30.579-0.008c2.487-0.006,4.787-0.691,6.798-2.207
			c1.672-1.26,2.555-2.859,2.539-5.035c-0.06-8.072-0.035-16.145-0.042-24.218c-0.001-0.903,0-1.808,0-2.712
			c-0.078-0.021-0.155-0.043-0.232-0.063C353.838,202.265,340.445,213.611,327.051,224.957z"/>
		<path fill-rule="evenodd" clip-rule="evenodd" fill="#FFFFFF" d="M194.782,0c0.846,0.176,1.702,0.312,2.534,0.536
			c6.589,1.774,11.119,7.48,11.209,14.479c0.109,8.584,0.115,17.174-0.023,25.759c-0.129,7.969-6.623,14.454-14.583,14.551
			c-10.579,0.128-21.159,0.06-31.739,0.065c-2.32,0.001-4.645,0.096-6.93-0.508c-5.825-1.539-10.313-6.628-11.063-12.597
			c-0.024-0.195-0.107-0.382-0.164-0.574c0-9.354,0-18.708,0-28.063c0.055-0.164,0.139-0.325,0.161-0.493
			c0.826-6.206,5.352-11.242,11.422-12.698c0.685-0.165,1.376-0.305,2.065-0.457C170.042,0,182.412,0,194.782,0z M176.314,47.11
			c0,0.007,0,0.015,0,0.022c5.571,0,11.143,0.018,16.714-0.005c4.247-0.018,7.238-2.864,7.266-7.044
			c0.054-8.254,0.051-16.509,0.001-24.764c-0.023-3.943-2.996-7.025-6.736-7.035c-11.5-0.029-23-0.027-34.5-0.001
			c-3.639,0.009-6.73,3.063-6.748,6.697c-0.041,8.484-0.038,16.969-0.001,25.454c0.016,3.58,3.002,6.615,6.603,6.657
			C164.713,47.16,170.514,47.11,176.314,47.11z"/>
	</g>
</g>
</svg>
